<svg width="145" height="20" viewBox="0 0 145 20" fill="none" xmlns="http://www.w3.org/2000/svg">
<path d="M0 19.5946H3.94012V14.3271L5.87833 11.974L10.9832 19.5946H15.6968L8.6992 9.35835L15.6149 1.05892H10.8922L4.18581 9.23164H3.94012V1.05892H0V19.5946Z" fill="#FF577F"/>
<path d="M23.4503 19.8661C26.9081 19.8661 29.2376 18.1918 29.7836 15.6123L26.1983 15.377C25.8071 16.4359 24.8061 16.988 23.514 16.988C21.5757 16.988 20.3473 15.7119 20.3473 13.6393V13.6302H29.8655V12.5713C29.8655 7.8469 26.99 5.51183 23.2956 5.51183C19.1826 5.51183 16.5164 8.41709 16.5164 12.7071C16.5164 17.1147 19.1462 19.8661 23.4503 19.8661ZM20.3473 11.2409C20.4292 9.65702 21.6394 8.38993 23.3593 8.38993C25.0427 8.38993 26.2074 9.58462 26.2165 11.2409H20.3473Z" fill="#FF577F"/>
<path d="M36.7841 11.5577C36.7932 9.76563 37.8669 8.71576 39.432 8.71576C40.9881 8.71576 41.9253 9.72943 41.9162 11.4309V19.5946H45.7926V10.7431C45.7926 7.50297 43.8817 5.51183 40.9699 5.51183C38.8952 5.51183 37.3937 6.5255 36.7659 8.14557H36.6021V5.69285H32.9076V19.5946H36.7841V11.5577Z" fill="#FF577F"/>
<path d="M49.2875 19.5946H61.0351V16.5174H54.3742V16.4178L60.7985 8.19987V5.69285H49.5241V8.77006H56.1304V8.86962L49.2875 17.2958V19.5946Z" fill="#FF577F"/>
<path d="M64.5118 19.5946H68.3882V5.69285H64.5118V19.5946ZM66.4591 3.90082C67.6147 3.90082 68.5611 3.02291 68.5611 1.94589C68.5611 0.877912 67.6147 0 66.4591 0C65.3125 0 64.3662 0.877912 64.3662 1.94589C64.3662 3.02291 65.3125 3.90082 66.4591 3.90082Z" fill="#FF577F"/>
<path d="M78.3756 19.8661C81.8334 19.8661 84.1629 18.1918 84.7089 15.6123L81.1237 15.377C80.7324 16.4359 79.7314 16.988 78.4393 16.988C76.5011 16.988 75.2726 15.7119 75.2726 13.6393V13.6302H84.7908V12.5713C84.7908 7.8469 81.9153 5.51183 78.2209 5.51183C74.1079 5.51183 71.4417 8.41709 71.4417 12.7071C71.4417 17.1147 74.0715 19.8661 78.3756 19.8661ZM75.2726 11.2409C75.3545 9.65702 76.5648 8.38993 78.2846 8.38993C79.968 8.38993 81.1328 9.58462 81.1419 11.2409H75.2726Z" fill="#FF577F"/>
<path d="M94.3489 19.5946H98.289V11.9378H106.288V19.5946H110.219V1.05892H106.288V8.70671H98.289V1.05892H94.3489V19.5946Z" fill="#FF577F"/>
<path d="M122.87 13.6755C122.879 15.5399 121.596 16.5174 120.204 16.5174C118.739 16.5174 117.792 15.4947 117.783 13.8565V5.69285H113.907V14.5444C113.916 17.7935 115.827 19.7756 118.639 19.7756C120.741 19.7756 122.251 18.6986 122.879 17.0695H123.025V19.5946H126.746V5.69285H122.87V13.6755Z" fill="#FF577F"/>
<path d="M130.432 19.5946H134.254V17.3682H134.427C134.964 18.5266 136.138 19.8209 138.394 19.8209C141.579 19.8209 144.063 17.3139 144.063 12.6618C144.063 7.8831 141.47 5.51183 138.404 5.51183C136.065 5.51183 134.946 6.89658 134.427 8.02791H134.309V1.05892H130.432V19.5946ZM134.227 12.6437C134.227 10.1639 135.282 8.58 137.166 8.58C139.086 8.58 140.105 10.2363 140.105 12.6437C140.105 15.0693 139.068 16.7527 137.166 16.7527C135.301 16.7527 134.227 15.1236 134.227 12.6437Z" fill="#FF577F"/>
</svg>
